<?xml version="1.0" encoding="utf-8"?>
<!-- Generator: Adobe Illustrator 27.3.1, SVG Export Plug-In . SVG Version: 6.00 Build 0)  -->
<svg version="1.1" xmlns="http://www.w3.org/2000/svg" xmlns:xlink="http://www.w3.org/1999/xlink" x="0px" y="0px"
	 viewBox="0 0 1300 1000" width="5000" height="5000" style="enable-background:new 0 0 1300 1000;" xml:space="preserve">
<style type="text/css">
	.st0{fill:#06061E;}
	.st1{fill-rule:evenodd;clip-rule:evenodd;fill:url(#SVGID_1_);}
</style>
<g id="background">
	<polygon class="st0" points="626,293 389,293 389,527.43 389,705 626,705 863,705 863,527.43 863,293 	"/>
</g>
<g id="icon">
	<linearGradient id="SVGID_1_" gradientUnits="userSpaceOnUse" x1="462.2393" y1="589.6104" x2="933.2109" y2="281.3377">
		<stop  offset="0.0806" style="stop-color:#0144FF"/>
		<stop  offset="0.4086" style="stop-color:#00B7C1"/>
		<stop  offset="1" style="stop-color:#00FF19"/>
	</linearGradient>
	<path class="st1" d="M534.62,472.83v-88.75h113.47c46.03,0,86.48,25.17,108.28,62.42c0.71-0.11,1.47-0.17,2.21-0.17
		c9.27,0,16.78,7.54,16.78,16.81c0,9.27-7.51,16.78-16.78,16.78c-9.27,0-16.78-7.51-16.78-16.78c0-3.46,1.05-6.66,2.83-9.33
		c-19.36-33.36-55.47-55.9-96.55-55.9h-99.67v73.76c6.52,2.32,11.17,8.53,11.17,15.82c0,9.27-7.51,16.78-16.78,16.78
		c-9.27,0-16.81-7.51-16.81-16.78C526,481.19,529.49,475.69,534.62,472.83L534.62,472.83z M617.33,591.09h30.73
		c2.1,0,4.17-0.09,6.24-0.26h-0.03c16.89-1.3,32.57-7.82,45.27-18.2c13.24-10.83,22.96-25.62,27.35-42.18
		c12.95-48.64-22.14-102.61-78.8-102.61h-22.39h-16.61h-7.77h-14.14c-2.86,5.19-8.39,8.73-14.74,8.73
		c-9.27,0-16.78-7.51-16.78-16.78c0-9.27,7.51-16.81,16.78-16.81c6.35,0,11.88,3.54,14.74,8.73h38.52h22.39
		c96.6,0,128.66,118.15,61.94,173.17c-16.92,13.92-38.52,22.31-61.96,22.31h-30.73c-2.86,5.22-8.39,8.73-14.74,8.73
		c-9.27,0-16.78-7.51-16.78-16.78c0-9.27,7.51-16.78,16.78-16.78C608.94,582.36,614.47,585.88,617.33,591.09L617.33,591.09z
		 M541.42,554.07c6.6,0,12.33,3.8,15.05,9.35h89.49c25.79,0,47.68-18.62,52.81-43c-5.67-2.69-9.61-8.48-9.61-15.19
		c0-9.27,7.51-16.78,16.78-16.78c9.27,0,16.78,7.51,16.78,16.78c0,6.83-4.05,12.7-9.92,15.34c-5.36,31.97-33.45,56.69-66.84,56.69
		h-89.01c-2.52,6.09-8.53,10.38-15.53,10.38c-9.27,0-16.78-7.51-16.78-16.78C524.64,561.58,532.15,554.07,541.42,554.07
		L541.42,554.07z"/>
</g>
</svg>
